<?xml version="1.0" encoding="UTF-8"?>
<svg xmlns="http://www.w3.org/2000/svg" viewBox="0 0 512 512">
  <defs>
    <linearGradient id="greenGrad" x1="0%" y1="0%" x2="100%" y2="100%">
      <stop offset="0%" stop-color="#006b2d"/>
      <stop offset="100%" stop-color="#00b050"/>
    </linearGradient>
  </defs>

  <!-- Circle -->
  <circle cx="256" cy="256" r="220" fill="none" stroke="url(#greenGrad)" stroke-width="18"/>

  <!-- MH Monogram -->
  <path d="M100 170 L100 340 L145 340 L145 240 L205 295 L265 240 L265 340 L310 340 L310 170 L205 255 Z"
        fill="url(#greenGrad)"/>

  <path d="M300 170 L300 340 L350 340 L350 270 L415 270 L415 340 L465 340 L465 170 L415 170 L415 225 L350 225 L350 170 Z"
        fill="#00b050"/>

  <!-- Wave -->
  <path d="M135 360 C190 330, 260 330, 330 360 C370 375, 405 380, 435 372"
        fill="none" stroke="#00b050" stroke-width="16" stroke-linecap="round"/>

  <path d="M135 385 C195 355, 265 355, 335 385 C375 400, 405 405, 440 395"
        fill="none" stroke="#222222" stroke-width="16" stroke-linecap="round"/>
</svg>
